<?xml version="1.0" standalone="no"?>
<!DOCTYPE svg PUBLIC "-//W3C//DTD SVG 20010904//EN"
 "http://www.w3.org/TR/2001/REC-SVG-20010904/DTD/svg10.dtd">
<svg version="1.0" xmlns="http://www.w3.org/2000/svg"
 width="253.000000pt" height="164.000000pt" viewBox="0 0 253.000000 164.000000"
 preserveAspectRatio="xMidYMid meet">
<metadata>
Created by potrace 1.10, written by Peter Selinger 2001-2011
</metadata>
<g transform="translate(0.000000,164.000000) scale(0.100000,-0.100000)"
fill="#e62725" stroke="none">
<path d="M2293 1630 c-23 -5 -56 -16 -74 -25 -37 -20 -129 -103 -129 -118 0
-5 16 -27 35 -48 52 -58 69 -128 62 -268 -16 -363 -275 -760 -567 -870 -51
-19 -85 -25 -155 -25 -88 -1 -106 4 -163 42 -9 6 12 34 79 103 311 319 491
704 407 869 -31 58 -73 80 -159 80 -158 0 -323 -106 -474 -305 -59 -78 -158
-279 -184 -375 -28 -102 -43 -240 -35 -310 l6 -58 -55 -12 c-30 -7 -82 -11
-116 -8 -49 3 -68 10 -98 35 -55 43 -82 117 -83 218 0 192 73 380 277 713 99
161 153 265 153 293 0 13 -10 13 -87 -3 -75 -16 -127 -18 -358 -16 -304 3
-332 -1 -410 -60 -51 -39 -113 -132 -139 -209 -14 -42 -14 -44 2 -38 9 4 46
15 81 23 58 13 78 13 200 -2 199 -24 292 -18 369 23 12 6 22 9 22 6 0 -3 -31
-44 -69 -93 -313 -399 -438 -789 -326 -1018 77 -157 282 -206 523 -125 51 17
115 42 143 57 l52 26 23 -25 c101 -110 324 -127 541 -41 388 153 783 629 904
1092 25 95 36 290 20 349 -12 43 -50 96 -80 112 -27 15 -94 20 -138 11z m-677
-496 c22 -85 -136 -363 -315 -554 l-61 -65 0 42 c0 178 140 482 264 574 53 38
103 40 112 3z"/>
</g>
</svg>
